<?xml version="1.0" encoding="utf-8"?>
<!-- Generator: Adobe Illustrator 19.0.0, SVG Export Plug-In . SVG Version: 6.00 Build 0)  -->
<svg version="1.1" id="Layer_1" xmlns="http://www.w3.org/2000/svg" xmlns:xlink="http://www.w3.org/1999/xlink" x="0px" y="0px"
	 viewBox="0 0 500 150" style="enable-background:new 0 0 500 150;" xml:space="preserve">
<style type="text/css">
	.st0{fill:#020202;}
	.st1{fill:#ED2024;}
</style>
<g id="XMLID_2_">
	<path id="XMLID_66_" class="st0" d="M0.7,114.8c7.3-6.4,14.4-12.6,21.4-18.8c0.7-0.6,1.5-0.7,2.3-0.7c15.9,0,31.8,0,47.6,0
		c6.2,0,12.2-4.4,14.1-10.1c2.1-6.4-1-12.6-6.6-15.8c-2.5-1.4-5.1-2-8-2c-23.1,0-46.2,0-69.3,0.1c-1.4,0-1.7-0.3-1.7-1.7
		c0.1-5.2,0.1-10.5,0-15.7c0-1.3,0.3-1.7,1.6-1.7c22.8,0,45.5,0,68.3,0c3.8,0,7.3-0.9,10.4-3.2c8.4-6.1,7.7-18-1.5-23
		c-2.4-1.3-5-2-7.8-2c-16.6,0-33.1,0-49.7,0c-2.2,0-2.2,0-2.2,2.1c0,5.1,0,10.2,0,15.2c0,1.1-0.2,1.6-1.5,1.6
		c-5.5-0.1-10.9-0.1-16.4,0c-1.1,0-1.3-0.3-1.3-1.3c0-11.9,0-23.7,0-35.6c0-1,0.2-1.4,1.3-1.4c23.5,0,47-0.1,70.6,0.1
		c11.4,0.1,21.3,4.3,29.1,12.8c11.5,12.6,10.8,30.9-1.5,42.8c-1.1,1-1.3,1.4-0.1,2.6c14.4,13.8,12.6,35.8-3.8,47.7
		c-7.2,5.2-15.2,7.9-24.1,7.9c-23.1,0-46.3,0-69.4,0C2,114.8,1.5,114.8,0.7,114.8z"/>
	<path id="XMLID_65_" class="st0" d="M251.1,114.8c7.3-6.3,14.2-12.4,21.2-18.5c0.6-0.6,1.3-0.6,2.1-0.6c15.3,0,30.6,0,45.9,0
		c3.6,0,7.3,0,10.6-1.7c4.9-2.5,8.2-6.2,8.4-11.9c0.3-5.7-3.3-10.7-8.9-13.1c-2.4-1-4.9-1.5-7.5-1.5c-11.8,0-23.6,0.2-35.4,0
		c-12.2-0.3-22.6-5-30.2-14.7c-9.8-12.6-8.3-29.5,3.4-40.8c7.7-7.4,17.2-10.8,27.8-11c12.2-0.2,24.5-0.5,36.7,0
		c14.7,0.6,26.3,7.1,33.2,20.6c1.8,3.5,2.7,7.4,2.7,11.4c0,0.9-0.3,1.2-1.2,1.2c-6.5,0-13,0-19.6,0c-0.6,0-1.1,0.1-1.2-0.9
		c-0.5-7.6-7.6-13-14.6-13.1c-12.1-0.2-24.3,0-36.4,0c-3.2,0-6.1,0.9-8.8,2.7c-9.2,5.9-8.8,17.8,0.7,23.2c2.8,1.6,5.7,2.3,8.9,2.3
		c11.9,0,23.8-0.2,35.8,0.1c12.1,0.3,22.4,5,29.9,14.6c9.8,12.4,8.4,29.4-3.1,40.7c-7.4,7.2-16.4,11-26.7,11
		c-24.2,0.1-48.3,0-72.5,0C252.1,114.8,251.8,114.8,251.1,114.8z"/>
	<path id="XMLID_64_" class="st0" d="M430.8,0.9c14.4,25,28.7,49.7,43.1,74.7c-0.8,0-1.2,0-1.7,0c-7.2,0-14.3,0-21.5,0
		c-1.2,0-1.8-0.3-2.4-1.3c-5.5-9.2-11-18.4-16.6-27.6c-0.3-0.5-0.6-1-1-1.7c-2.1,3.4-4.1,6.7-6,10c-11.7,19.5-23.4,39-35.1,58.5
		c-0.6,0.9-1.1,1.3-2.2,1.3c-7.4-0.1-14.7,0-22.3,0C387.1,76.8,408.9,38.9,430.8,0.9z"/>
	<path id="XMLID_63_" class="st0" d="M180.4,67.6c-17.7,0-35.4,0-53.1,0c-1.3,0-1.7-0.3-1.6-1.7c0.1-5.4,0.1-10.8,0-16.2
		c0-1.2,0.2-1.6,1.5-1.6c35.4,0,70.9,0,106.3,0c1.2,0,1.5,0.2,1.5,1.5c-0.1,5.3-0.1,10.7,0,16c0,1.5-0.3,2-1.9,2
		C215.5,67.6,198,67.6,180.4,67.6z"/>
	<path id="XMLID_62_" class="st0" d="M126.2,0.9c0.6,0,0.8,0,1.1,0c35.5,0,71,0,106.5,0c1,0,1.4,0.2,1.4,1.3
		c-0.1,5.6-0.1,11.2,0,16.8c0,1-0.2,1.3-1.3,1.3c-28.2,0-56.3,0-84.5,0c-0.7,0-1.2-0.1-1.8-0.6C140.5,13.5,133.4,7.3,126.2,0.9z"/>
	<path id="XMLID_61_" class="st0" d="M126.2,114.8c7.3-6.4,14.4-12.6,21.4-18.9c0.5-0.4,1-0.5,1.6-0.5c28.1,0,56.2,0,84.3,0
		c1.2,0,1.4,0.4,1.4,1.5c-0.1,5.5-0.1,10.9,0,16.4c0,1.2-0.3,1.6-1.6,1.6c-13-0.1-26,0-39,0c-22.1,0-44.2,0-66.4,0
		C127.6,114.8,127,114.8,126.2,114.8z"/>
	<path id="XMLID_60_" class="st1" d="M460.7,94.9c1.1,0,2,0,2.9,0c6.9,0,13.8,0,20.7,0c0.9,0,1.4,0.3,1.8,1.1
		c2.9,5.1,6,10.2,8.8,15.3c0.6,1,1.9,2.1,1.3,3.1c-0.5,1-2.1,0.3-3.2,0.3c-6.5,0-12.9,0-19.4,0c-0.9,0-1.4-0.2-1.9-1
		c-3.2-5.4-6.5-10.8-9.8-16.2C461.6,96.7,461.3,95.9,460.7,94.9z"/>
	<path id="XMLID_56_" class="st0" d="M19.9,135.9c1.7,1.1,2.3,2.7,2,4.7c-0.3,2-1.4,3.2-3.3,3.7c-0.8,0.2-1.7,0.4-2.5,0.4
		c-4.6,0-9.3,0-13.9,0c-1,0-1.3-0.3-1.3-1.3c0-4.7,0-9.4,0-14.1c0-0.9,0.3-1.2,1.2-1.2c4.5,0,9.1,0,13.6,0c0.7,0,1.5,0.1,2.2,0.3
		C21.7,129.4,22.7,133,19.9,135.9z M10.6,137.2C10.6,137.2,10.6,137.2,10.6,137.2c-1.1,0-2.1,0-3.2,0c-4,0-4,0-3.9,4
		c0,0.1,0,0.1,0,0.2c-0.1,0.7,0.2,0.9,0.9,0.9c4.1,0,8.1,0,12.2,0c1.9,0,2.7-1,2.7-2.7c0-1.6-0.8-2.3-2.7-2.4
		C14.5,137.1,12.5,137.2,10.6,137.2z M10.2,134.8c0,0,0-0.1,0-0.1c2.3,0,4.6,0,6.9,0c1.2,0,1.7-0.9,1.7-1.9c0-1.1-0.4-1.9-1.5-2.2
		c-0.8-0.2-1.6-0.2-2.4-0.2c-2.7,0-5.4,0-8.2,0c-3.4,0-3.3,0-3.2,3.4c0,0.9,0.3,1.1,1.1,1.1C6.5,134.8,8.3,134.8,10.2,134.8z"/>
	<path id="XMLID_55_" class="st0" d="M187.3,144.6c-2.5-0.2-5,0.3-7.5-0.3c-1.9-0.5-3.2-1.5-3.5-3.5c-0.1-0.5-0.4-1.3,0.5-1.4
		c0.7,0,1.8-0.6,2,0.6c0.4,1.9,1.8,2.2,3.2,2.2c3.5,0.1,6.9,0.1,10.4,0c2,0,2.9-0.8,3-2.3c0.1-1.9-0.6-2.7-2.9-2.7
		c-3.6-0.1-7.2-0.1-10.7-0.1c-0.9,0-1.8-0.1-2.7-0.3c-2-0.5-2.9-1.5-3.1-3.4c-0.2-2.7,0.6-4.3,2.5-5c1-0.4,2.1-0.5,3.1-0.5
		c3.4,0,6.8,0,10.3,0c1.1,0,2.2,0.2,3.3,0.6c1.3,0.5,2.3,1.5,2.5,2.9c0.1,0.6,0.6,1.5-0.5,1.6c-0.7,0.1-1.8,0.6-2.1-0.9
		c-0.2-1.2-1.3-1.7-2.4-1.7c-4-0.3-8-0.3-12,0c-1.4,0.1-2.1,0.8-2.1,2.3c-0.1,1.5,0.8,2,2.1,2.1c3.5,0.4,7,0.1,10.6,0.2
		c1.3,0,2.7,0.1,3.9,0.5c2.1,0.7,3,2.1,3,4.4c-0.1,2.5-1.1,3.9-3.4,4.4C192.3,144.9,189.7,144.4,187.3,144.6z"/>
	<path id="XMLID_54_" class="st0" d="M151.2,144.6c-2.3,0-4.7-0.1-7,0c-1.2,0-1.4-0.4-1.4-1.5c0-4.6,0-9.2,0-13.8
		c0-1,0.3-1.3,1.3-1.3c4.8,0,9.6,0,14.4,0c0.8,0,1.3,0.2,1.3,1.1c0,1-0.5,1.1-1.3,1.1c-3.8,0-7.6,0-11.4,0c-1.1,0-1.6,0.2-1.5,1.5
		c0.1,3.2,0,3.2,3.2,3.2c3.1,0,6.2,0,9.3,0c0.9,0,1.4,0.1,1.4,1.2c0,1.1-0.6,1.1-1.5,1.1c-3.7,0-7.5,0-11.2,0
		c-0.9,0-1.2,0.2-1.2,1.1c-0.1,4-0.1,4,3.9,4c2.9,0,5.9,0,8.8,0c0.9,0,1.4,0.1,1.4,1.2c0,1.1-0.6,1.2-1.4,1.1
		C155.9,144.6,153.5,144.6,151.2,144.6z"/>
	<path id="XMLID_51_" class="st0" d="M61.6,132.7c1.4,0,2.8-0.1,4.2,0c2.6,0.2,3.8,1.6,3.8,4.2c0,2.2,0,4.4,0,6.6
		c0,0.9-0.3,1.1-1.1,1.1c-3.8,0-7.6,0-11.4,0c-2.8,0-4-1.2-4.1-3.8c0-2.3,0.8-3.4,3.1-3.7c3.2-0.4,6.5-0.2,9.8-0.1
		c0.3,0,0.8,0.4,1,0c0.2-0.4,0.1-0.9-0.2-1.3c-0.6-0.8-1.4-1-2.3-1c-1.9,0-3.7-0.1-5.6,0c-0.9,0-1.9,0.1-2.4,1.2
		c-0.5,1.2-1.7,0.8-2.3,0.5c-0.7-0.3-0.5-1.3-0.1-1.9c0.8-1.1,2.1-1.7,3.4-1.8C58.8,132.7,60.2,132.7,61.6,132.7z M61.3,139.1
		c-1.3,0-2.6,0-3.8,0c-1,0-1.7,0.3-1.7,1.6c0,1.2,0.4,1.7,1.6,1.7c2.7,0.1,5.3,0.2,8,0c1.1-0.1,1.7-0.6,1.7-1.7
		c0-1.2-0.9-1.5-1.8-1.6C63.8,139.1,62.6,139.1,61.3,139.1z"/>
	<path id="XMLID_48_" class="st0" d="M426.9,136.9c1.7,0.1,3.3-0.1,5,0.2c0.9,0.2,0.9-0.3,0.7-0.9c-0.3-1.1-1.3-1.4-2.3-1.5
		c-2-0.1-4.1-0.1-6.1,0c-0.9,0-1.7,0.2-2.2,1.3c-0.4,1.1-1.7,0.7-2.4,0.4c-0.7-0.3-0.4-1.3,0-1.8c0.8-1.2,2-1.8,3.4-1.8
		c2.8-0.1,5.6-0.1,8.3,0c2.6,0.1,3.9,1.7,3.9,4.3c0,2.1,0,4.2,0,6.2c0,0.9-0.2,1.3-1.2,1.3c-3.8-0.1-7.5,0-11.3,0
		c-3.1,0-4.2-1.3-4.2-4.2c0-1.9,0.8-2.8,2.7-3.2C423.1,136.8,425,137,426.9,136.9z M426.8,139.1c-1.3,0-2.7,0-4,0
		c-1.1,0-1.5,0.5-1.5,1.6c0,1,0.4,1.6,1.4,1.7c2.7,0.2,5.4,0.2,8.1,0c1.1-0.1,1.8-0.6,1.7-1.7c0-1.1-0.8-1.6-1.8-1.6
		C429.4,139.1,428.1,139.1,426.8,139.1z"/>
	<path id="XMLID_45_" class="st0" d="M317.2,128.2c1.4-0.4,2.1,0.3,2.7,1.4c2.6,4.5,5.3,8.9,7.8,13.3c0.3,0.4,1.2,1.1,0.3,1.5
		c-0.7,0.3-1.8,0.5-2.6-0.3c-0.1-0.1-0.2-0.3-0.2-0.4c-0.9-2.7-2.8-3.4-5.5-3.1c-2.4,0.2-4.8,0.1-7.2,0c-1,0-1.7,0.2-2.1,1.2
		c-0.3,0.7-0.8,1.4-1.2,2.1c-0.7,1.2-1.9,0.7-2.7,0.5c-0.7-0.2-0.1-0.9,0.2-1.3c2.2-3.7,4.3-7.3,6.5-11c0.5-0.9,1.1-1.7,1.5-2.6
		C315.2,128.4,315.9,127.6,317.2,128.2z M312.6,138.2c3.2,0,6.1,0,9.2,0c-1.6-2.7-3-5.2-4.6-7.9C315.7,133,314.2,135.6,312.6,138.2z
		"/>
	<path id="XMLID_42_" class="st0" d="M35,139.1c-2.1,0-4.2,0-6.2,0c-0.8,0-1,0.3-0.9,1c0.1,1.3,0.7,2.2,2,2.3
		c2.7,0.4,5.4,0.3,8.1,0.1c0.8-0.1,1.5-0.5,1.7-1.3c0.3-1.6,1.5-1.1,2.2-0.8c0.9,0.3,0.5,1.3,0.2,1.9c-0.7,1.5-2,2.2-3.6,2.3
		c-2.9,0.1-5.9,0.1-8.8,0c-3.1-0.2-4.5-1.8-4.5-4.9c0-0.6,0-1.3,0-1.9c0-2.8,1.6-4.7,4.3-5c2.9-0.3,5.9-0.4,8.8,0
		c2.9,0.4,4.3,2.3,4.1,5.2c0,0.8-0.3,1.1-1.1,1.1C39.1,139.1,37.1,139.1,35,139.1z M27.8,137c3.4,0,6.8,0,10.1,0
		c0.5,0,1.4,0.4,1.5-0.3c0.1-0.7-0.5-1.3-1.1-1.6c-0.5-0.2-1-0.4-1.5-0.4c-2.1,0-4.2-0.1-6.2,0C29.2,134.7,28.2,135.3,27.8,137z"/>
	<path id="XMLID_41_" class="st0" d="M338.8,144.6c-1.7,0-3.3,0.1-5,0c-2.2-0.2-3.3-1.3-3.4-3.1c0-0.7,0.1-1.2,0.9-1.2
		c0.7,0.1,1.7-0.4,1.7,0.8c0,1.2,0.8,1.4,1.7,1.5c2.8,0.1,5.5,0.1,8.3,0c0.9,0,1.9-0.3,1.8-1.6c-0.1-1.2-1-1.4-1.8-1.4
		c-2.7-0.1-5.3-0.1-8-0.1c-0.9,0-1.7,0-2.5-0.3c-1.3-0.5-2-1.4-2.1-2.7c-0.1-1.3,0.3-2.4,1.5-3.1c0.9-0.5,1.9-0.7,2.9-0.8
		c3-0.1,6-0.2,9,0.1c2.2,0.2,3.6,1.2,3.7,2.7c0.1,0.5,0.3,1.4-0.6,1.4c-0.7,0-1.8,0.6-2.1-0.7c-0.2-1.1-1.1-1.3-1.9-1.3
		c-2.8-0.1-5.6-0.1-8.3-0.1c-0.9,0-1.5,0.4-1.5,1.4c0,1.1,0.8,1.3,1.6,1.4c2.7,0.1,5.4,0.1,8.2,0c0.8,0,1.6,0.1,2.4,0.3
		c1.4,0.4,2.2,1.3,2.3,2.7c0.1,1.5-0.3,2.7-1.8,3.4c-0.7,0.3-1.5,0.6-2.3,0.6C341.9,144.6,340.4,144.6,338.8,144.6
		C338.8,144.6,338.8,144.6,338.8,144.6z"/>
	<path id="XMLID_40_" class="st0" d="M120.8,144.6c-1.7,0-3.3,0.1-5,0c-2.3-0.2-3.4-1.4-3.4-3.2c0-0.8,0.3-1.1,1-1
		c0.6,0.1,1.6-0.4,1.6,0.8c0,1.2,0.8,1.4,1.7,1.5c2.8,0.2,5.7,0.2,8.5,0c0.9-0.1,1.7-0.3,1.7-1.5c0-1.1-0.9-1.4-1.8-1.4
		c-2.7-0.1-5.3-0.1-8-0.1c-0.9,0-1.7,0-2.5-0.3c-1.2-0.4-2-1.2-2.1-2.5c-0.1-1.4,0.1-2.5,1.4-3.3c0.7-0.4,1.4-0.7,2.3-0.7
		c3.3-0.2,6.5-0.2,9.8,0.1c2.3,0.2,3.5,1.3,3.6,2.9c0,0.5,0.1,1.2-0.7,1.1c-0.6-0.1-1.7,0.5-1.9-0.6c-0.2-1.3-1.2-1.5-2.1-1.5
		c-2.7-0.1-5.4-0.1-8.2,0c-0.8,0-1.6,0.3-1.6,1.4c0,1.1,0.7,1.4,1.6,1.4c2.7,0.1,5.4,0.1,8.2,0.1c0.8,0,1.5,0,2.2,0.3
		c1.4,0.4,2.3,1.2,2.5,2.8c0.2,1.8-0.5,2.9-2,3.6c-0.7,0.3-1.4,0.5-2.2,0.5c-0.2,0-0.4,0-0.6,0C123.4,144.7,122.1,144.7,120.8,144.6
		C120.8,144.6,120.8,144.6,120.8,144.6z"/>
	<path id="XMLID_39_" class="st0" d="M285.3,144.6c-1.6,0-3.2,0.1-4.8,0c-2.3-0.2-3.5-1.4-3.4-3.2c0-0.7,0.2-1.2,1-1.1
		c0.6,0.1,1.6-0.4,1.6,0.7c0,1.2,0.8,1.4,1.7,1.5c2.8,0.2,5.6,0.2,8.5,0c0.9-0.1,1.7-0.3,1.7-1.5c0-1.1-0.9-1.4-1.8-1.4
		c-2.7-0.1-5.3-0.1-8-0.1c-0.9,0-1.7,0-2.5-0.3c-1.2-0.4-2-1.2-2.1-2.5c-0.1-1.4,0.2-2.6,1.6-3.4c0.9-0.5,1.8-0.7,2.8-0.7
		c3-0.1,6.1-0.2,9.1,0.1c2.3,0.2,3.5,1.3,3.6,2.9c0,0.5,0.1,1.2-0.7,1.2c-0.7,0-1.7,0.5-1.9-0.6c-0.3-1.5-1.4-1.5-2.4-1.6
		c-2.6-0.1-5.1,0-7.7,0c-0.9,0-1.8,0.2-1.8,1.4c0,1.1,0.8,1.4,1.7,1.4c2.9,0,5.8,0,8.7,0.1c2.8,0.1,4.1,1.3,4.1,3.6
		c0,1.6-0.8,2.6-2.6,3.2C289.5,144.9,287.4,144.5,285.3,144.6z"/>
	<path id="XMLID_38_" class="st0" d="M359.3,144.6c-1.7,0-3.3,0.1-5,0c-2.3-0.2-3.5-1.3-3.5-3.2c0-0.7,0.2-1.2,1-1.1
		c0.6,0.1,1.6-0.4,1.6,0.7c0,1.3,0.8,1.5,1.8,1.6c2.8,0.1,5.5,0.1,8.3,0c0.8,0,1.7-0.2,1.7-1.4c0-1.2-0.8-1.4-1.7-1.5
		c-2.7-0.1-5.3-0.1-8-0.1c-0.9,0-1.7,0-2.5-0.3c-1.3-0.4-2-1.3-2.2-2.6c-0.1-1.4,0.3-2.5,1.6-3.2c0.6-0.3,1.3-0.6,2-0.6
		c3.4-0.2,6.7-0.3,10.1,0.1c2.3,0.2,3.5,1.3,3.5,3c0,0.5,0.1,1.1-0.6,1c-0.7-0.1-1.7,0.5-1.9-0.5c-0.3-1.4-1.2-1.6-2.2-1.6
		c-2.7-0.1-5.3-0.1-8,0c-0.8,0-1.6,0.3-1.6,1.3c0,1.2,0.8,1.5,1.7,1.5c2.7,0.1,5.3,0,8,0c0.7,0,1.5,0,2.2,0.2
		c1.5,0.4,2.5,1.2,2.5,2.9c0.1,1.9-0.6,3-2.3,3.6c-1.7,0.6-3.4,0.4-5.1,0.4C360.1,144.7,359.7,144.7,359.3,144.6
		C359.3,144.6,359.3,144.6,359.3,144.6z"/>
	<path id="XMLID_35_" class="st0" d="M203.9,143.8c0,1.6-0.1,2.9,0,4.3c0,1-0.4,1.2-1.2,1.2c-0.8,0-1.4,0-1.4-1.1
		c0.1-4.6,0-9.2,0-13.8c0-1.6,1.1-2.3,2.5-1.4c0.3,0.2,0.3,0.3,0.7,0.2c3.1-0.9,6.4-0.5,9.5-0.3c2.6,0.1,4,1.8,4.2,4.4
		c0,0.4,0,0.9,0,1.3c0,4.6-1.5,6.1-6.1,6.2c-1.4,0-2.8,0-4.2,0C206.7,144.7,205.4,144.6,203.9,143.8z M209.9,134.7c-1,0-2-0.1-3,0
		c-2,0.2-2.8,1.1-2.9,3.1c0,0.6,0,1.3,0,1.9c0,1.5,0.8,2.3,2.3,2.7c1.9,0.4,3.8,0.3,5.7,0.2c3-0.2,3.8-0.9,3.6-3.7c0-0.5,0-1,0-1.4
		c0.1-1.3-0.7-2-1.9-2.4C212.4,134.6,211.1,134.8,209.9,134.7z"/>
	<path id="XMLID_32_" class="st0" d="M379.3,144.7c-1.3-0.1-3,0.2-4.5-0.3c-0.5-0.1-1-0.3-1.5-0.5c-2-1.1-2.8-4-2.1-7.5
		c0.4-1.9,1.8-3.3,4-3.6c3-0.3,6.1-0.4,9.1,0c2.6,0.3,4,2.1,4.1,4.7c0.2,5.7-1.3,7.2-7.1,7.2C380.7,144.7,380.1,144.7,379.3,144.7z
		 M379.7,134.7C379.7,134.7,379.7,134.7,379.7,134.7c-0.4,0-0.9,0-1.3,0c-4.8-0.2-4.9,1.3-4.6,5.4c0,0.1,0,0.1,0,0.2
		c0.2,1.3,0.9,2,2.2,2.2c1.6,0.3,3.3,0.2,4.9,0.2c4.3,0,5-0.7,4.8-4.9c-0.1-2-0.9-2.9-3-3C381.7,134.6,380.7,134.7,379.7,134.7z"/>
	<path id="XMLID_29_" class="st0" d="M470.7,144.7c-1.5-0.1-3.3,0.2-5-0.3c-2-0.6-3-1.7-3.3-3.8c-0.1-0.5-0.1-1.1-0.1-1.6
		c-0.3-4.5,1.5-6.3,6.3-6.3c2.2,0,4.4-0.1,6.6,0.1c2.9,0.4,4.3,2,4.4,4.9c0,5.7-1.3,7.1-7,7.1C472,144.7,471.5,144.7,470.7,144.7z
		 M470.9,134.7C470.9,134.7,470.9,134.7,470.9,134.7c-0.3,0-0.6,0-1,0c-4.7,0-5.4,0.8-4.9,5.4c0.1,1.3,0.7,2,2,2.3
		c1.7,0.4,3.4,0.2,5.1,0.2c4.2,0,4.8-0.6,4.8-4.8c0-2.1-0.9-3-2.9-3.2C473,134.6,471.9,134.7,470.9,134.7z"/>
	<path id="XMLID_26_" class="st0" d="M229.3,144.7c-1.5-0.1-3.3,0.2-5-0.4c-2.1-0.6-3.1-1.9-3.2-4c-0.1-1,0-1.9,0-2.9
		c0.1-2.6,1.3-4.3,4-4.6c3.1-0.4,6.2-0.4,9.3,0c2.5,0.3,3.8,2,4,4.4c0.3,5.9-1.2,7.4-7.1,7.4C230.7,144.7,230.1,144.7,229.3,144.7z
		 M229.7,134.7C229.7,134.7,229.7,134.7,229.7,134.7c-0.3,0-0.6,0-1,0c-4.8,0-5.2,0.5-5,5.2c0.1,1.4,0.7,2.3,2.1,2.6
		c1.6,0.4,3.3,0.2,4.9,0.2c4.3,0,4.9-0.6,4.8-4.9c0-2-0.9-2.9-2.9-3.1C231.8,134.6,230.7,134.7,229.7,134.7z"/>
	<path id="XMLID_25_" class="st0" d="M399.6,144.6c-1.4,0-2.8,0.1-4.2,0c-2.8-0.2-4.2-1.8-4.3-4.6c0-0.6,0-1.2,0-1.8
		c0-3.7,1.4-5.3,5.1-5.6c2.7-0.2,5.3-0.2,8,0.1c1.8,0.2,3.3,1,4,2.8c0.2,0.5,0.6,1.4-0.3,1.6c-0.7,0.1-1.9,0.8-2.2-0.7
		c-0.3-1.3-1.3-1.7-2.4-1.7c-2.3-0.1-4.6-0.1-6.9,0c-1.7,0.1-2.5,1-2.6,2.7c-0.2,4.7,0.3,5.3,5,5.2c1.6,0,3.2,0.2,4.8-0.1
		c0.9-0.2,1.8-0.5,1.9-1.4c0.3-1.7,1.5-1.3,2.3-1c1,0.4,0.4,1.4,0.1,2c-0.8,1.8-2.4,2.3-4.2,2.5C402.4,144.7,401,144.6,399.6,144.6
		C399.6,144.6,399.6,144.6,399.6,144.6z"/>
	<path id="XMLID_24_" class="st0" d="M268.7,134.8c-1.5,0-3.6-0.6-4.5,0.2c-1,0.9-0.3,3-0.3,4.6c0,2.5,0.5,3,3,3
		c0.9,0,1.7,0.1,2.6,0c1.4-0.1,2.5-0.5,2.6-2.2c0.1-1.4,1.2-1,2-0.9c1,0,0.8,0.8,0.7,1.4c-0.3,2.2-1.9,3.5-4.5,3.8
		c-1.6,0.1-3.3,0.2-5,0c-2.6-0.2-4-1.8-4.1-4.6c-0.1-1.4,0-2.9,0-4.3c0-0.6,0-1.1-0.8-1c-0.6,0.1-0.8-0.4-0.8-0.9
		c0-0.6,0-1.1,0.8-1.1c0.8,0,0.9-0.4,0.8-1c-0.1-1.1,0.6-1.1,1.4-1.2c0.9,0,1.5,0.1,1.4,1.2c-0.1,1,0.5,1,1.2,1c2.2,0,4.4-0.1,6.6,0
		c0.8,0,2-0.6,1.9,1.1c0,1.5-1.2,0.9-1.9,1c-1,0.1-2,0-3,0C268.7,134.7,268.7,134.7,268.7,134.8z"/>
	<path id="XMLID_23_" class="st0" d="M482.7,138.7c0-1.4,0-2.9,0-4.3c0-1.6,1.1-2.3,2.6-1.4c0.2,0.1,0.2,0.5,0.7,0.3
		c2.9-1.1,5.9-0.5,8.9-0.5c3.1,0.1,4.8,1.8,4.9,4.9c0.1,1.9,0,3.8,0,5.8c0,1.1-0.6,1.1-1.4,1.2c-0.9,0-1.4-0.2-1.4-1.2
		c0.1-1.8,0-3.6,0-5.4c0-2.1-0.9-3.1-2.9-3.2c-1.9-0.1-3.8-0.1-5.8,0c-2,0.1-2.9,1.2-2.9,3.2c0,1.8,0,3.5,0,5.3c0,1-0.3,1.4-1.4,1.4
		c-1,0-1.5-0.2-1.4-1.3C482.8,141.8,482.7,140.2,482.7,138.7z"/>
	<path id="XMLID_22_" class="st0" d="M446.4,134.7c-1.3,0.1-3.3-0.7-4.2,0.3c-0.8,0.8-0.2,2.8-0.2,4.3c0,2.8,0.5,3.2,3.3,3.2
		c0.9,0,1.7,0,2.6-0.1c1.3-0.1,2.3-0.7,2.4-2.1c0.1-1.5,1.1-1,1.9-1c1.1,0,0.9,0.9,0.8,1.5c-0.2,2-1.9,3.4-4.4,3.7
		c-1.7,0.2-3.4,0.2-5.1,0c-2.6-0.2-3.9-1.8-3.9-4.3c0-1.3,0-2.6,0-3.8c0-0.8,0.4-1.9-1.2-1.8c-0.5,0-0.5-0.6-0.5-1
		c0-0.5,0.1-1,0.7-1c0.9,0.1,1.1-0.4,1-1.2c-0.2-1.1,0.6-1,1.3-1c0.8,0,1.5,0,1.3,1.1c-0.1,1,0.3,1.1,1.2,1.1c2.4-0.1,4.8,0,7.2,0
		c0.8,0,1.3,0,1.3,1.1c0,1.1-0.6,1-1.4,1C449.1,134.6,447.8,134.7,446.4,134.7z"/>
	<path id="XMLID_21_" class="st0" d="M109.4,138.7c0,1.5,0,3,0,4.5c0,0.5,0.3,1.2-0.4,1.4c-0.7,0.2-1.6,0.4-2.1-0.2
		c-0.4-0.5-0.6-0.3-1-0.2c-3.4,0.8-6.9,0.7-10.3,0.1c-2.2-0.4-3.3-1.9-3.3-4.1c-0.1-2.1,0-4.3,0-6.4c0-1,0.4-1.2,1.3-1.1
		c0.8,0,1.5-0.1,1.5,1.1c-0.1,1.9,0,3.8,0,5.8c0,1.9,0.6,2.8,2.4,3c2.3,0.3,4.7,0.3,7,0c1.8-0.3,2.4-1.1,2.4-3c0-1.9,0.1-3.7,0-5.6
		c0-1,0.4-1.2,1.3-1.2c0.9,0,1.4,0.2,1.3,1.2C109.3,135.5,109.4,137.1,109.4,138.7z"/>
	<path id="XMLID_20_" class="st0" d="M241.6,138.6c0-1.4,0-2.8,0-4.2c0-1.7,0.8-2.3,2.3-1.5c0.6,0.3,0.9,0.2,1.4,0.1
		c2.8-0.4,5.6-0.6,8.4,0.2c1.7,0.5,2.8,1.7,3.1,3.5c0.1,0.5,0.3,1.3-0.5,1.2c-0.7,0-1.9,0.7-2.1-0.7c-0.3-1.9-1.6-2.4-3.2-2.4
		c-1.2-0.1-2.5-0.1-3.7,0c-2,0.1-2.9,1.1-2.9,3.1c0,1.9,0,3.7,0,5.6c0,1.1-0.6,1.1-1.4,1.1c-0.8,0-1.3-0.1-1.3-1.1
		C241.7,141.9,241.6,140.2,241.6,138.6z"/>
	<path id="XMLID_19_" class="st0" d="M73.3,138.6c0-1.4,0-2.9,0-4.3c0-1.6,0.9-2.2,2.4-1.5c0.2,0.1,0.2,0.5,0.7,0.3
		c2.4-0.9,5-0.5,7.4-0.4c2.6,0.1,4.5,1.9,4.6,4c0,0.5,0.1,1.1-0.6,1c-0.7-0.1-1.6,0.6-2-0.6c-0.8-2.1-1.4-2.5-3.6-2.5
		c-1.1,0-2.1,0-3.2,0c-2.1,0.1-3.1,1.1-3.1,3.2c0,1.8-0.1,3.6,0,5.4c0,1-0.4,1.2-1.3,1.2c-0.9,0-1.4-0.1-1.3-1.2
		C73.4,141.8,73.3,140.2,73.3,138.6z"/>
	<path id="XMLID_18_" class="st0" d="M49.2,136.3c0,2.3,0,4.7,0,7c0,1-0.3,1.3-1.3,1.2c-0.8,0-1.4-0.1-1.4-1.2c0-4.7,0-9.5,0-14.2
		c0-1.1,0.6-1.1,1.4-1.1c0.9,0,1.3,0.2,1.3,1.2C49.1,131.7,49.2,134,49.2,136.3z"/>
	<path id="XMLID_17_" class="st0" d="M414.7,138.6c0,1.6,0,3.3,0,4.9c0,1.1-0.6,1-1.3,1c-0.8,0-1.3,0-1.3-1.1c0.1-3.3,0.1-6.6,0-9.9
		c0-1.1,0.7-1,1.4-1c0.7,0,1.4-0.1,1.3,1C414.7,135.3,414.7,137,414.7,138.6z"/>
	<path id="XMLID_16_" class="st0" d="M456,138.5c0-1.5,0.1-3.1,0-4.6c-0.1-1,0.4-1.3,1.3-1.2c0.8,0,1.4,0,1.4,1.1
		c-0.1,3.2-0.1,6.4,0,9.6c0,1.2-0.6,1.2-1.5,1.2c-1.1,0.1-1.2-0.5-1.2-1.3C456.1,141.7,456,140.1,456,138.5z"/>
	<path id="XMLID_15_" class="st0" d="M167.7,138.8c-1.1,0-2.2,0-3.4,0c-1,0.1-1.1-0.5-1.1-1.3c0-0.9,0.4-1.1,1.2-1.1
		c2.3,0,4.6,0,6.9,0c1,0,1.1,0.5,1.1,1.3c0,0.9-0.3,1.1-1.2,1.1C170,138.7,168.9,138.8,167.7,138.8z"/>
	<path id="XMLID_14_" class="st0" d="M413.4,128.1c1-0.2,1.4,0.1,1.4,1.1c0,1-0.5,1.2-1.4,1.2c-0.9,0-1.3-0.2-1.3-1.2
		C412.1,128.1,412.6,128,413.4,128.1z"/>
	<path id="XMLID_13_" class="st0" d="M457.4,128.1c0.9-0.1,1.3,0.1,1.3,1.2c0,1.1-0.5,1.2-1.4,1.2c-0.9,0-1.3-0.3-1.3-1.3
		C456,128.1,456.5,128,457.4,128.1z"/>
</g>
</svg>
