<?xml version="1.0" encoding="utf-8"?>
<!-- Generator: Adobe Illustrator 19.0.0, SVG Export Plug-In . SVG Version: 6.00 Build 0)  -->
<svg version="1.1" id="Layer_1" xmlns="http://www.w3.org/2000/svg" xmlns:xlink="http://www.w3.org/1999/xlink" x="0px" y="0px"
	 viewBox="0 0 1000 1000" style="enable-background:new 0 0 1000 1000;" xml:space="preserve">
<style type="text/css">
	.st0{fill-rule:evenodd;clip-rule:evenodd;fill:#FDFDFE;}
</style>
<g id="XMLID_2_">
	<path id="XMLID_3_" class="st0" d="M956.5,456.1h-98.1c-17.8,0-32.2,14.5-32.2,32.2v84.5c0,17.8,14.5,32.2,32.2,32.2h98.1
		c17.8,0,32.2-14.5,32.2-32.2v-84.5C988.7,470.5,974.3,456.1,956.5,456.1L956.5,456.1z M596,344.9h-12.1v-2.1
		c3.3,0.1,5.4-0.6,3.9-3.5c-2.2-4.4,7.4-4.1,8.9-3.2C599.2,337.7,597.6,342.6,596,344.9L596,344.9z M579.5,347.8h14.6
		c-1.6,2.5-6.2,10.7-9.1,10.8C583.8,357,579.9,351.6,579.5,347.8L579.5,347.8z M858.9,488.3H956v84.5h-97.1V488.3L858.9,488.3z
		 M659.7,488.3h135.1v0c0-17.8-14.5-32.2-32.2-32.2H658.8c-17.7,0-32.2,14.5-32.2,32.2v84.5c0,17.8,14.5,32.2,32.2,32.2h103.7
		c17.8,0,32.2-14.5,32.2-32.2V517H685.1v0c0,13.7,11.2,24.9,24.9,24.9h54v30.9H659.7V488.3L659.7,488.3z M237.8,488.3h129v0
		c0-17.8-14.5-32.2-32.2-32.2h-99.8c-17.8,0-32.2,14.5-32.2,32.2v26.1c0,17.8,14.5,32.2,32.2,32.2h100.1v26.1H202.5l0,0
		c0,17.8,14.5,32.2,32.2,32.2h103.2c17.8,0,32.2-14.5,32.2-32.2v-26.1c0-17.8-14.5-32.2-32.2-32.2H237.8V488.3L237.8,488.3z
		 M52.1,488.3h121.8v0c0-17.8-14.5-32.2-32.2-32.2H43.5c-17.8,0-32.2,14.5-32.2,32.2v84.5c0,17.8,14.5,32.2,32.2,32.2h98.1
		c17.8,0,32.2-14.5,32.2-32.2l0,0H52.1V488.3L52.1,488.3z M627,330.2c-0.6,0.3-1.4,0.6-2.4,0.8c-4.6,6.5-1.8,5.8-9.9,11.2
		c0,10.9,0.3,12.1,2.9,21.8c0.1,0.2,0,0.5-0.1,0.7c-0.1,0.2-0.3,0.3-0.5,0.4c-2,0.4-4.8,1.1-6.4,1.5c0.1,0.3,0.8,6.5,0,11.1
		c-1.4,7.2-18.6,23-22.7,23.8c-5.7,1.1-12-3.9-22-8.3c-2.7-1.2-11.9-7.2-16.7-8.8c-4-1.3-8,8.4-3,11c2.3,1.2,6,2.8,7.1,5.9
		c3.4,8.9-0.5,43.3-7.6,50.3c-3.4,0-6.2-3.1-8.7-2.3c-4.5,2.4-1.6,16.1,0,18.5c27.5,28.3,24.2,49.2,35.9,64.8
		c5.3,0,1.8,5.6,5.9,12.3c1.1,3.4-0.3,9.2-0.9,11.4c0,2.8,0,5.7,0,8.5c-0.3,0.9-0.6,1.8-0.9,2.7c0,2.5,0,5,0,7.5
		c-0.8,3.6-1.7,8.5-2.5,11.9c-1.6,7.2,4.7,12.7,0.9,19.5c0,4.2,0,3.4-2.5,6.7c0,6.5-1.5,20.2,0,25c1.1,3.4,13.3,17.6,16.3,19
		c7.4,3.3,18.3,2.6,14.7,14.2c-21.6,6.6-35.4-3.7-46.9-3.9l-0.5,2c-7.4,0-13.3-1.8-14.9-2.3c0-2,2.4-17.3,3.2-19.7
		c0.8-1.3,1.7-2.6,2.5-3.9c0.9-2.6-0.9-21.7-1.1-26.8c-4.6-3.4-5.5-13.7-5.5-19.4c-1.3-4.4-1.3-9.6-1.6-15.3
		c-0.1-2.7-1.7-6.6-0.7-9.9c0.7-2.3,3.3-3.3,3.9-5.2c0-2.1,0-4.3,0-6.4c1.2-6.7,0.8-9.8-3.2-13.9c-10.1,0.1-11.5,0.6-17.1-8
		c-1.7-2.7-15.9-25-17.2-25.6c-11.8-5.1-9.4-3.1-14.6-12.3c-0.2,0-3.3,1-6.1,5.2c-4.2,6.3-11.7,26.7-13.8,33.9
		c-1.2,4,0,8.4-1.8,11.7c-1.3,2.4-5.5,3.2-6.4,4.8c-4.1,7.4-1,6.8-8.9,12.1c-1.4,1.8-1.5,4.6-2.5,6.7c-0.6,0.8-1.2,1.7-1.8,2.5
		c-1.3,2.8,1.4,8,0.9,9.8c-1.4,4.7-3.1,9.3-5,13.7c-3.6,8.5-3.1,19.9-6.8,25.1c-1.8,2.6-6.2,0.1-9.6,2.2c-0.2,1.8-5.5,14-6.6,17.4
		c0,6.5,0,12.9,0,19.4c1,3.3,3.8,6.4,2.9,10.5c-0.9,4.4-16.2,4.3-24.5,3.1c-5.6-0.8-7.2-4.9-7.1-9.6c0.1-5.6,11.4-41.9,10.7-44.3
		c-8.6-9.7,2.3-19.6,5.5-28.6c1.6-4.4,0.6-10.5,2.3-14.6c3-5.5,6-11,9.1-16.5c5.5-5.2,3.1-5.5,6-10.1c2.6-4,5.7-6.8,3.9-13
		c-3.7-12.5,4.3-30.1,4.8-43.2c-1.4-1.5-6.2-1-6.8-5c-1.2-8.1,3.1-22.4,5.7-23.8c1.2-0.6,2.5-0.1,3.6-0.7c0-6.1-6-39.8-1.5-41.6
		c2.8-1.1,9.3-1.6,10.6-2.2c-0.1-1.4-1.1-4.5-2.3-4.7c-2-0.3-6.1-1.1-9.4-1.8c-10.1-2.3-0.8-42.1-0.6-42.3c2.8-3.7,15.7,1.3,17.2-5
		c4.3-5.5-3.3-26.6,11.4-52.7c5-8.8,14.5-17.7,25.6-13.9c3.7,1.3,1.5,6.6,8,0.9c0.2-3.3-1.4-6.1-2.3-8.9
		c-10.9-32.4,25.9-49.9,51.7-31.4c2.9,1.2,4.6,1.8,6.7,3.4c1.4,7.3,8.7,20.4,1.4,28.9c-3,0.6-6.6,2.3-8.9,3.9c0,3,0.3,5.7,0.9,7.5
		c0.5,1.6,1.4,2.2-1,3.2c-0.3,0.1-0.2,1.1,0,1.5c6,1.2,12.4-1.1,16.4-2.7h4.8v-6h1.2h1v-4.7h2.3v8.2h6v2.6h88.8v4.6h3.9v-16.9h3.3
		V313h7.6v7.8h23.5v-2.3h3.9v1h11.1v6.5h-11.1v1h-3.9v-2.3H681v2.3c-3.5,0-6.9,0-10.4,0v-1.6h-4.4v4.7H627L627,330.2z"/>
</g>
</svg>
