<?xml version="1.0" encoding="utf-8"?>
<!-- Generator: Adobe Illustrator 19.0.0, SVG Export Plug-In . SVG Version: 6.00 Build 0)  -->
<svg version="1.1" xmlns="http://www.w3.org/2000/svg" xmlns:xlink="http://www.w3.org/1999/xlink" x="0px" y="0px"
	 viewBox="194 -104 1000 1000" style="enable-background:new 194 -104 1000 1000;" xml:space="preserve">
<style type="text/css">
	.st0{fill:#FFFFFF;}
	.st1{fill:#F4F4F4;}
</style>
<g id="Layer_2">
</g>
<g id="Layer_1">
	<g id="XMLID_2_">
		<path class="st0" d="M349.2,737.8l-81.6-0.8v3.9c0,0,15.2-2.3,17.8,7.5c0.3,6.4-0.4,108.7-0.4,108.7s-0.8,9.3-14.4,8.9
			c0.1,1.4,0,1.9,0,1.9s33.5-0.8,48.4,1.9C427.5,889.4,438.2,738.8,349.2,737.8z M381.1,836.3c-10.2,25.2-61.7,36.2-73.1,15.5
			l-0.7-104.9C393.9,740.9,393,807.1,381.1,836.3z"/>
		<path class="st0" d="M531.4,734.5c-37,0-70.9,25.5-70.9,69.2c0,43.6,35,67.3,72,67.3s71.5-27,71.5-70.6
			C604,756.8,568.4,734.5,531.4,734.5z M541.4,862.8c-25.2,0-50.9-12-56.8-59.5c0-29.6,7.2-57.9,40.9-60.1
			c28.8-1.9,53.4,27.3,53.4,57C579.5,830.7,571.7,860,541.4,862.8z"/>
		<path id="XMLID_12_" class="st0" d="M651.8,734.8l-4,18.2c0,0-1.4,3.6,0.3,9.5c1.5-4.1,1.8-10.6,11-14.2
			c9.3-0.4,36.6-0.4,36.6-0.4l-0.5,109.9c0,0-0.2,9.7-13.9,8.4c-0.1,1.6-0.1,2-0.1,2l56-0.3l-0.1-2.1c0,0-17.4,2.5-18.3-8
			c-0.1-5.5-1-110-1-110l32.2,0.8c0,0,11.1,0.3,11,13.8c1.5,0.9,2.5-0.4,2.6-1.9s0.6-18.4,0.6-18.4s2.7-5.8-0.8-6.3
			c-3.4,1.2-7.2,1.8-9.7,1.8s-93.5-0.1-93.5-0.1S656.1,735.2,651.8,734.8L651.8,734.8z"/>
		<path class="st0" d="M923.7,836.9c4.1-1.7,11.5-3.9,20.5-3.9c1.2-1.4-0.3-3-3.6-3.2c-3.5-0.3-31.6-0.3-31.6-0.3l-38.4-94.9
			c-0.2,0.2-2.3-6-4-0.3l-50,123c0,0-5.1,10.3-19.1,9.4c0,1.1-0.1,1.7-0.1,1.7l45.7,0.1L843,866c0,0-14.8,1.2-12.8-6.2
			c1.8-6.2,7.2-21,7.2-21l51.2,0.1l10.1,23.9c0,0,1.2,2.8-3.6,3.1c0,1.8,0,2,0,2l45.7,0.6l-0.1-3c0,0-11,3.1-17-5.3
			c-4.5-7.6-11-21.5-11-21.5S919.7,839.3,923.7,836.9z M840.4,830l23.3-59.9l21.3,59.4L840.4,830z"/>
		<path id="XMLID_8_" class="st0" d="M1040.1,770.9c0,0-4.1-22.7-3.1-28.1c35-20.5,112-3.1,62.2,68.1c-5.2,6.4-25.3,28.1-44.9,42.6
			c14.3,0.2,39.7-0.7,45.7-1c15.6-0.6,15.1-19.3,20.4-19.4l-4.7,27.4c0,0-0.1,8.1-9.5,7.4c-9.4-0.1-74.7,0.3-74.7,0.3
			s-6.2,0.1-0.5-4.8c9.4-8.9,61.9-49.3,60.3-91.7C1089.9,735.5,1047.2,730.3,1040.1,770.9L1040.1,770.9z"/>
		<path id="XMLID_3_" class="st1" d="M481.9,333c6.7,4.2,11,8.3,17.6,13.6l52.7,48.9c11,10.4,39.2,38.9,49.9,51.4
			c7.4,8.6,10.6,9.5,16,17.9c-2,0.7-26.6,6.4-40.9,11.3c-29.8,10.3-57,26.7-82.9,17.9c-3.9-1.3-21.6-18.2-29.7-23.9
			c-4.8-3.4-9.4-6.5-14.8-10.4c-15.8-11-20.3-3.4,0.6-52.3c5.5-12.8,10.2-24.3,15.4-36.9C470.4,359.6,476.6,341.9,481.9,333
			L481.9,333z M860.6,37.7c10.9,3.8,37.1,18.8,43.6,26.9c5.4,6.8,3.9,7.4,1.9,17.2l-10.7,83.6c-14.8,0.5-10.5-1.2-19.7-7.4
			c-15.4-10.3-68.2-49.3-85.2-63l-32.6-26.2c2.4-2.2-0.8-1.1,4.6-2.5l48.3-10.9C835.9,49.2,839.8,47.5,860.6,37.7L860.6,37.7z
			 M427.8,54.5c11-6.2,17-1.5,35.6-15c5-3.6,16.5-3.3,23.5-2.3c7.2,1,23.9,14.8,31.6,19.6c4.4,2.7,24.3,17.9,27.6,23.2l9.8,15.8
			c13.5,0.7,11.1-0.1,28.3,12.4L747.7,216c35.2,24.4,76.2,49.4,111.5,74L960,355.9c-2.9,6.3-6.3,27.8-8.2,36.4
			c-8.8,39.6-19.7,56.4-37.5,94.5c-25.5,1-45.7,0.8-70.6,0.4c-8-0.1-6.1,1.6-10.5-2.7c-14.6-14.1-41.2-45.3-55.9-59.6
			c-5.1-4.9-9.7-9.6-14.8-14.9c-40.8-43.5-21.5-30.4-29.5-41.3l-82.3-77.5c-18.8-18.4-35.9-38.1-55.3-58.8
			c-5-5.3-7.5-10.3-12.7-15.1l-1.4-1.3c-1.4-1.3-0.9-0.8-2.1-2.3l-23.9-27.1c-4.2-3.9-3.8-3.8-6.9-7.2l-21.5-22.2
			c-4.7-4.9-8.4-10.1-12.9-15.4L493.3,120c-3.1-3.1-5.3-4.1-8.3-7.2c-9.7-10.2-17.9-19.9-27.8-30.1
			C449.3,74.7,430.1,59.1,427.8,54.5L427.8,54.5z M526.4-66.9l-168.6,3.4c-9.1,33.6-0.1,16.6,0,51.6v63.5
			c-1.4,18.3-6.2,27.7-6.2,52.1c0,8.2-1.9,27.2,2.1,33.7c7,11.4,6.8,21.1,9.8,37.7c2.7,14.7,5.5,13.2-1.1,24.2l-3.1,28.1l14.4,14.1
			l0.1,24.7c-8.6,7.9,1.1,2.3-17.1,15.4l1.6,74.4l17.9,13l-3.7,63.5c-18.8,13.5-14.8,29.9-14.2,46.7l2.3,63.3l-4.2,32.4
			c42.2,10.6,33,7.3,81.2,7.3c42.7,0,37.1,0.4,79.3-4.7l1.1,7.2c6.5-0.4,13.3-0.8,19.7-1.4c17.9-1.8,10.8-3.8,17-6.1
			c4.5-1.6,52.5,9.5,60.4,11.2c4.3-4.9,2.1-2.9,8.1-6.8c3.3,6.9,17.1,22.6,22.8,29.5l17.4-16.4l30.5,11.8l8.9-7.5
			c3.4,4.2,5.6,9.3,11.8,10.1c9,1.1,10.5-13.8,30.5-14.1l115.7-3.9c1.5-1.4,2.4-2.3,4-3.8l5.9-4.8c7.6,4.6,10.9,9,21.3,8.3
			c31.9-2.1,15.2,7.7,56.4,5.5c7.1-0.4,5.3-2.1,11.6-4.3l13.3-2c-2.9-7.8-4.8-6.7-10.5-12.6l73.3,14.8c-1-86.3-0.8-191.4,0.3-280.2
			l-19.7,1.5c0.7-5.7,9.3-3.6,10-15.2c0.9-14.6,0.7-64.5-1.4-75.2c-1.1-5.5-15-21.4-18.7-26.3c4.4-12,4.9-11.2,13.1-21
			c-0.7-6.5-2.2-8.1-4.9-15.6l21.5-7.1c0.3-12.4,1.6-61.9,0.8-77.6L1028.1-9l6.6-21.1l0.3-21.7c-18.6-10.7-16.1-11.8-29-11.8
			c-11.6,0.1-27.1-0.5-38.2-3.1c-14.2-3.3-10.4-5.6-26,10.4l-7.1-15.4c-22.3-1.7-93.7-7.9-110.7-7.9c-21.7,0-18.6,1.6-25.9,26.2
			l-31.1,3.2l-4.2-13.4l-28.2-0.4l3-3.3c5.5-5.2,3.6-3.2,7.9-12.4H632c-3.7,6.9-10.6,12.2-18.7,14.9c-11.3,3.7-5.7-2.3-12.8,4.2
			c-5.4,4.8-6.3,4.5-14.7,4.3c-11.2-0.3-22.6-0.6-33.9-1.1c-5.1-0.2-10.9,0.3-15.8-0.9C528.3-59.9,530.5-61.9,526.4-66.9L526.4-66.9
			z"/>
	</g>
</g>
</svg>
