<?xml version="1.0" encoding="utf-8"?>
<!-- Generator: Adobe Illustrator 19.0.0, SVG Export Plug-In . SVG Version: 6.00 Build 0)  -->
<svg version="1.1" xmlns="http://www.w3.org/2000/svg" xmlns:xlink="http://www.w3.org/1999/xlink" x="0px" y="0px"
	 viewBox="194 -104 1000 1000" style="enable-background:new 194 -104 1000 1000;" xml:space="preserve">
<style type="text/css">
	.st0{display:none;}
	.st1{display:inline;fill:#1C1C1C;}
	.st2{fill:#F4F4F4;}
	.st3{fill:#DCDBDB;}
	.st4{fill:#F2F1F1;}
	.st5{fill:#F7F6F6;}
</style>
<g id="Layer_2" class="st0">
	<rect x="329.3" y="267.3" class="st1" width="774.7" height="539.3"/>
</g>
<g id="Layer_4">
	<g id="XMLID_37_">
		<g id="XMLID_36_">
			<path id="XMLID_34_" class="st2" d="M870.1,130.7c30,14.6,60.1,29.2,90.1,43.8c1.6,0.9,3.1,1.8,4.7,2.7c0.5,0.5,1.1,1.2,1.7,2.2
				c0.2,0.5,0.4,0.9,0.6,1.3c-0.3,0.6-0.6,1.1-0.9,1.7c-1.3,2-2.8,3.5-4,4.5c-0.1,0.1-0.3,0.4-0.7,0.7
				c-43.8,39.6-95.9,79.3-157.2,114.9c-10.6,6.1-21.1,12-31.5,17.5c-0.4,0.2-0.8,0.4-0.8,0.4c-1.3,0.5-2.5,0.6-3.4,0.7
				c-0.9,0-1.9-0.1-2.8-0.1c-1,0-2.4-0.2-4-0.9c-1.3-0.6-2.2-1.3-2.5-1.5c-1.4-1.1-2.2-2.4-2.7-3.3c-0.7-1.2-1.3-2.7-1.7-4.4
				c0,0-0.1-0.4-0.2-0.9c-8.5-51.8-16.7-104.4-24.5-158c-8.1-55.7-6.9-42.6-15.7-113.8c-8.1-65-12.8-104.3-12.8-100
				c0,0-0.1,1.1-0.1,2.1c-0.6,15.9,0.1,26,0.1,26c-2.1,16.9-4.7,42.5-5.8,73.7c-1.1,31.2,0.4,40.6,0.7,72.7
				c0.7,78.1-7.2,85.8-5.3,155.3c1.4,53,2,66.7,2,66.7c0.4,9,1.1,24.2,1.1,45.1c0,16.7-0.6,13.1-0.3,23.9c1,31.9,5.3,63.5,5.3,63.5
				c1,7.2,1.9,13.2,2.6,17.5C808,384.5,913.8,284.4,1019.7,184.2l4.1-3.5l-8.8-2.9L870.1,130.7z"/>
			<path id="XMLID_39_" class="st3" d="M533.6,130.6c-30.1,14.6-60.1,29.2-90.2,43.8c-1.6,0.9-3.1,1.8-4.7,2.7
				c-0.5,0.5-1.1,1.2-1.7,2.2c-0.2,0.5-0.4,0.9-0.6,1.3c0.3,0.6,0.6,1.1,0.9,1.7c1.3,2,2.8,3.5,4,4.5c0.1,0.1,0.3,0.4,0.7,0.7
				c43.9,39.6,96,79.3,157.5,114.9c10.6,6.1,21.1,12,31.6,17.5c0.4,0.2,0.8,0.4,0.8,0.4c1.3,0.5,2.5,0.6,3.4,0.7
				c0.9,0,1.9-0.1,2.8-0.1c1,0,2.4-0.2,4-0.9c1.3-0.6,2.2-1.3,2.5-1.5c1.4-1.1,2.2-2.4,2.7-3.3c0.7-1.2,1.3-2.7,1.7-4.4
				c0,0,0.1-0.4,0.2-0.9c8.5-51.8,16.7-104.4,24.5-158c8.1-55.7,6.9-42.6,15.8-113.8c8.1-65,12.8-104.3,12.8-100
				c0,1.3,2.2,17.7-0.3,100.9v445.7L384,184.1l-4.1-3.5l8.8-2.9L533.6,130.6z"/>
		</g>
		<g id="XMLID_33_">
			<path id="XMLID_35_" class="st2" d="M701.8,580.9c18.2-29.7,38.4-60.3,60.5-91.4c51.4-72.1,104.2-133.8,154.7-186
				c-71.7,70.4-143.5,140.8-215.2,211.3c-0.3,1-0.7,2.6-1.1,4.5c-1.3,5.8-1.9,11.2-1.9,22.9c-0.1,13-0.1,22.3,2.3,34.6
				C701.3,578.5,701.6,580,701.8,580.9z"/>
			<path id="XMLID_38_" class="st3" d="M701.8,580.9c-18.2-29.7-38.4-60.3-60.5-91.4c-51.4-72.1-104.2-133.8-154.7-186
				c71.7,70.4,143.5,140.8,215.2,211.3V580.9z"/>
		</g>
	</g>
	<g id="XMLID_2_">
		<path id="XMLID_16_" class="st2" d="M839.9,725.5c-6.6-0.1-13.1,0-20.7,0c2.7,2.3,5,3.2,7.3,4l0,0c0.9,1.1,2.2,1.3,3.3,1.8
			c2,0.9,2.7,1.8,1.6,4.1c-2.8,5.8-7,9.5-13.3,11.1c-9.3,2.4-19.1-4-21.6-12.6c-2.6-9.2,1.6-18.1,10.3-21.9
			c5.7-2.5,11.3-1.9,16.8,0.7l0,0c1.1,1,2.7,1.7,3.3,2.9c2.3,4,5.9,3.4,9.5,3.4c1.9,0,2.7-0.6,1.4-2.5c-1.5-2.2-2.7-4.6-5-6.2
			c-2.3-1.9-7.7-5.7-15.4-6.6c-2.5-0.3-12.8-1.3-21.3,5.9c-1.6,1.4-6.6,6.3-8.6,14.2c-2,8,2.2,19.3,9.3,23.8
			c8.7,7.1,18.4,8,28.4,4.1c10.2-4,15.2-12.3,16.3-23.1C841.8,727.2,841.9,725.5,839.9,725.5z"/>
		<path id="XMLID_21_" class="st4" d="M1097.4,702.8c-1.4-0.2-2.8,0-4.2,0c-5.4,0-5.4,0-5.4,5.2c0,9.8,0,19.6,0,29.4
			c0,0.8,0.5,1.7-0.5,2.2s-1.3-0.6-1.8-1.2c-1.5-1.6-31.4-35-31.4-35s-1.2-0.6-1.5-0.3c-0.5,0.4,0.2,1.7,0.2,1.9
			c-0.1,15.7-0.1,31.3,0,47c0,0.8-0.5,1.9,0.6,2.5l0,0l0,0l0,0c2.7,0.9,5.3,0.3,8.8,0.4c-1.9-2.1-1.6-4.2-1.6-6.2
			c0-7.6-0.6-24.6,0.4-25.1s22.4,24.6,24.9,27.6c3.5,4.1,7.1,2.6,11,3c-1.5-2-1.4-4-1.4-6.1c0-13,0.1-26,0-39c0-2.1,0.5-3.6,2.1-4.8
			l0,0l0,0l0,0C1099.3,703.6,1098.6,703,1097.4,702.8z"/>
		<g id="XMLID_6_">
			<path id="XMLID_18_" class="st2" d="M577.8,739.1c-1.2-2-0.9-3.1,0.9-4.5c10.3-7.9,9.3-22.4-1.9-29c-1.9-1.1-3.6-1.7-5.5-2.2
				c-1.6-0.5-4.7-1.3-11.7-1.3c-3.4,0-7.8,0.1-13.1,0.8c0.4,0.4,0.9,1,1.3,1.9c0.8,1.6,0.7,3.2,0.7,4.9c-0.1,14-0.1,28-0.3,42
				c0,2.1,1.3,2.1,2.3,2c2.1-0.2,4.3,1,4.3-2.5c0.1-3.3,0.2-6.5,0-9.8c-0.1-2.5,0.6-3.2,3.3-3.4c2.3-0.2,4.2-0.1,6.3,0
				c5.4,0.2,9.6,10.3,10.1,11.9c1.7,5.6,4.9,4.1,8.2,4.3c2.3,0.2,3-0.5,1.7-2.8C582.2,747.2,580.2,743,577.8,739.1z M567,732.2
				c-3.7,0.2-8.4,1.7-10.7-0.8c-2.1-2.2-0.7-15.5-0.7-18.1c0-1.6,0-2.5,0.6-3.1c0.5-0.5,9.6-0.1,12.5,0.2c4.2,0.4,7.2,3,8.3,8.4
				C578,723.1,573.3,731.8,567,732.2z"/>
			<path id="XMLID_19_" class="st2" d="M554.7,753.3c0.2-0.2,0.3-0.5,0.4-0.8C555,752.8,554.9,753.1,554.7,753.3z"/>
		</g>
		<path id="XMLID_15_" class="st2" d="M467.5,750.3c-6-13.7-11.8-27.5-17.8-41.3c-0.9-2-1-4.6-3.4-5.8c-7.4,16.9-14.8,33.7-22.3,51
			c2.1,0,4.5,0,6.9,0c1.2,0,2.1-0.6,2.4-1.7c0.6-2,2.1-2.1,3.9-2.1c5.6,0.1,11.2,0,16.8,0c2.7,0,5.7-0.6,6.9,3
			c0.2,0.7,1.1,0.7,1.8,0.7c2.5,0,5,0,8,0C469.3,752.6,468,751.6,467.5,750.3z M454.6,743.8c-5.1,0-10.3-0.1-15.4-0.1
			c-2.2,0-2.2-1.2-1.5-2.8c2.5-5.7,5-11.4,7.4-17.2l0.1-0.1c-0.1,0-0.1,0.1-0.2,0.1c0-1.2-0.4-2.7,1.3-3.2c0.7-0.2,0.9,0.4,0.9,1.1
			h0.1c2.8,6.7,5.4,13.5,8.3,20.2C456.4,743.6,455.9,743.8,454.6,743.8z"/>
		<path id="XMLID_23_" class="st2" d="M685.4,702.5c-8,17.5-14.7,34.8-23.1,51.9c3.8-1,8.4,1.7,10.9-3.5c0.4-0.9,1.7-0.5,2.6-0.5
			c5.4,0,10.7,0,16.1,0c3.1,0,6.5-0.9,7.9,3.2c0.2,0.6,0.9,0.6,1.5,0.6c2.5,0,5,0,7.3,0C700,737.4,693.7,719.9,685.4,702.5z
			 M695.4,743.5c-0.4,0.9-1.4,0.7-2.2,0.7c-5,0-10,0.1-15,0c-3.2-0.1-3.2-1.6-1.4-3.6c2.8-6.5,5.6-13.1,8.7-20.3
			c3.1,7.4,6,14.2,8.8,21l0,0l0,0C695.1,741.8,695.9,742.4,695.4,743.5z"/>
		<path class="st5" d="M331.4,703.4c-8.3-1.5-16.7-0.6-25.1-0.9c-0.6,0-1.3-0.1-1.3,0.7c0,0.8,0.6,1.1,1.4,1c1.2,1.1,1,2.5,1,3.9
			c0,13,0,26.1,0,39.1c0,1.8,0.5,3.7-0.7,5.4c-0.7,1,0.1,1.3,1,1.5c6.6,1.1,7.7,0.2,7.7-6.4c0-0.3,0-0.7,0-1c0-7.6,0-7.5,7.6-7.7
			c5.3-0.2,10.6-0.2,15-3.9c0.1,0,0.1-0.1,0.2-0.1c5.5-3.3,7.9-8.6,7.9-14.6C346.1,712.8,338.9,704.8,331.4,703.4z M312.6,748.2
			c-0.8-3.2-0.3-6.2,1.7-9.2c0,0.1,0,0.1,0,0.2C312.4,742.1,311.9,745.1,312.6,748.2c0.4,1.1,1,2.5-0.9,2.7c0,0,0,0-0.1,0
			C313.4,750.8,312.8,749.3,312.6,748.2z M308.6,750.6c0.1-14,0.1-28,0-42c0-1.8,0.4-3.9-2.2-4.4c0,0,0.1,0,0.1,0
			c2.6,0.5,2.2,2.6,2.2,4.4C308.7,722.6,308.7,736.6,308.6,750.6c0.1,0.9-0.1,1.8,0.8,1.8C308.4,752.5,308.6,751.5,308.6,750.6z
			 M310.4,752.4c0.8,0,1.8,0.3,2.6,0.3C312.3,752.6,311.3,752.4,310.4,752.4z M315.4,721c0-2.9,0.1-5.8,0-8.7
			c-0.1-1.9,0.3-2.9,2.5-2.7c5,0.5,10.2-1.2,14.7,2.4c3.5,2.8,5.4,7.5,4.2,12c-1,3.9-5.9,8.1-9.8,8.3c-3.1,0.1-6.3,0-9.4,0.1
			c-1.7,0.1-2.2-0.7-2.2-2.3C315.5,727.1,315.4,724.1,315.4,721z"/>
		<path id="XMLID_32_" class="st2" d="M968.8,713c-1.2-1.4-8-9.5-19.8-10.3c-1.7-0.1-13.2-0.7-21.7,8.2c-0.5,0.5-0.8,0.9-0.9,1
			c-6.8,7.8-6.1,18-6,18.7c0.1,0.9,1.1,10.5,9,17.2c8.6,7.2,23.6,9.7,34.4,1C974.3,740.4,976.7,724.6,968.8,713z M928.5,727.8
			c0.3-9.5,9.2-18.1,18.5-17.7c11.1,0.4,18.9,8.4,18.6,18.8c-0.3,10.1-8.5,18-18.5,17.8C936.3,746.5,928.2,738.2,928.5,727.8z"/>
	</g>
</g>
</svg>
