<?xml version="1.0" encoding="utf-8"?>
<!-- Generator: Adobe Illustrator 19.0.0, SVG Export Plug-In . SVG Version: 6.00 Build 0)  -->
<svg version="1.1" id="Layer_1" xmlns="http://www.w3.org/2000/svg" xmlns:xlink="http://www.w3.org/1999/xlink" x="0px" y="0px"
	 viewBox="0 0 1000 1000" style="enable-background:new 0 0 1000 1000;" xml:space="preserve">
<style type="text/css">
	.st0{fill:#F4F4F4;}
	.st1{fill:#FFFFFF;}
</style>
<path id="XMLID_8_" class="st0" d="M682.3,196.7l-45.8-46.5l-49.2-48.6h-201l-47.9,48.6l-45.8,46.5h146.5v419.8l48.3,47.7l48.3-47.7
	V196.7l-48.3-46.5l48.3,46.5H682.3z"/>
<path id="XMLID_5_" class="st0" d="M634.8,242.1h-46.1v187.3l-48.2,47.6l33.9,32.9l34.2,33.3l73.7-72.9l0-228.2L634.8,242.1z
	 M386.2,429.5V242.1h-93.7v228.2l73.7,72.9l34.2-33.3l33.9-32.9L386.2,429.5z"/>
<path id="XMLID_2_" class="st0" d="M379.8,76L261.2,194.6v287.3L487.5,704l226.3-222.1V194.6L595.2,76H379.8z M239.4,180.3
	l126.1-126l3.7-3.8h236.4l3.7,3.8l126.1,126l3.8,3.8v308.5l-3.8,3.8L496.4,730.9l-8.9,8.8l-8.9-8.8L239.5,496.3l-3.8-3.8V184.1
	L239.4,180.3z"/>
<path id="XMLID_34_" class="st1" d="M607.5,855.4l2.1-15.2l2,15.2H607.5z M820.2,823.3l-24.5,4l-2.2,0.4l0-2.3c0-1-0.1-2-0.1-3
	c-0.2-2.9-0.7-5.1-1.3-6.5c-0.4-0.8-0.7-1.3-1-1.3c-0.1,0,0,0,0,0c-0.4,0-0.8,0.2-1.1,0.6c-0.4,0.4-0.7,1-0.9,1.7
	c-0.2,0.8-0.3,1.8-0.3,2.8c0.2,2.6,1.5,5.8,4.5,8.7c1.8,1.7,3.7,3.5,5.6,5.2c11.8,10.8,23.4,21.5,23.7,40.2
	c0.1,3.9-0.9,8.2-2.5,12.1c-1.7,4.3-4.2,8.3-6.8,11.1c-2.7,2.9-6.2,4.9-9.8,6.2c-4.6,1.7-9.5,2.3-13.3,2.3c-7.7,0-13.8-2.1-18.5-5.7
	l0.8,1.9l1.1,2.7h-32.7l-0.5-1.2l-9.1-21.8l0,21.1l0,2h-53.7l-0.4-1.4l-7.9-24.5l-0.1,23.9l0,2h-53.7l-0.3-1.6l-3.5-22.2h-3.5
	l-4.3,22.3l-0.3,1.6h-54.4l0-1.9l0.1-56.1h-16.4l0,5.4h13.3l0,2l-0.1,19.1l0,2h-13.2l-0.1,27.7l0,1.9h-23.2v-1.9l0-8.6
	c-0.9,1.5-2,3-3.3,4.2c-3.9,3.9-9.3,6.3-15.3,6.3c-6,0-11.4-2.4-15.3-6.3c-3.8-3.8-6.2-9-6.3-14.8c-1.6,4.3-4.2,8.5-7.6,11.9
	c-5.3,5.4-12.4,9.2-19.7,9.2H333.9l-0.4-1.5l-7.3-28.8l0,28.3l0,2H297l0-2l0-13.2c-1.4,2.5-3.2,4.9-5.2,6.9
	c-5.6,5.6-13.4,9.1-21.9,9.1s-16.3-3.5-22-9.1c-5.6-5.6-9.1-13.4-9.1-21.9v-26.3l-8.6,54.8l-0.3,1.7h-26.5l-0.2-1.7l-2.1-16l-2.1,16
	l-0.2,1.7h-26.5l-0.3-1.6l-19-112.3l-0.4-2.3h29.8l0.3,1.6l2.1,12.8l1.6-12.7l0.2-1.7h27.9l0.2,1.7l1.6,12.7l2.1-12.8l0.3-1.6h29.7
	l-0.4,2.3l-1,6.6c0.4-0.4,0.7-0.8,1.1-1.2c5.6-5.6,13.4-9.1,22-9.1c8.6,0,16.3,3.5,21.9,9.1c2.1,2.1,4,4.6,5.4,7.2l0-13l0-2h33.7v0
	h0.1c5.6,0,12.6,2.1,18.2,6.6c3.5,2.8,6.4,6.5,8.1,11.2l0-15.9l0-2h28.9l0,2l-0.2,84.4h22l0.2-84.4l0-2H442v0c7.9,0,15.1,4,20.3,9.8
	c5.2,5.8,8.5,13.4,8.5,20.9h0v0h0l0,17.6c1.1-2.6,2.7-5.1,4.7-7.1c3.9-3.9,9.3-6.3,15.3-6.3c6,0,11.4,2.4,15.3,6.3
	c1.3,1.3,2.4,2.8,3.4,4.3l0-8.7l0-2h39.7l0-5.9h-16l0-2l-0.1-25l0-2h93.1l0.3,1.6l12.7,77.9l0.1-77.6v-2h29.4l0.4,1.4l8,26.3v-27.7
	h54.3l0,1.9l0,12.2l7-13.1l0.6-1h32.8l-1.4,2.8l-2.5,5c1.5-1.7,3.3-3.1,5.2-4.4c4.6-3,10.2-4.7,16.9-4.6c10.2,0.2,18.1,3.8,23.5,9.6
	c5.9,6.3,8.8,15,8.6,24.7l0,1.6L820.2,823.3L820.2,823.3z M756.8,863.5l-0.1-0.8l2-0.1l24.5-1.3l2.1-0.1l0,2.1c0,3,0.3,5.5,0.8,7.7
	c0.6,2.2,1.3,3.9,2.2,5.1c0.7,0.9,1.4,1.3,2,1.3c0.1,0,0.2,0,0.4,0c0.3-0.1,0.7-0.3,1-0.6c0.5-0.5,0.9-1.2,1.1-2.1
	c0.3-1,0.3-2.2-0.1-3.6c-0.5-2.2-1.9-4.7-4.7-7.5c-2.3-2.3-4.8-4.6-7.4-6.8c-3.3-2.9-6.7-5.9-10-9.5c-0.9-1-2-2.2-3-3.5
	c-0.8-1-1.5-1.9-2.1-2.7c-4.5-6.9-6.6-14.8-6.4-22.5c0-2.5,0.3-5,0.8-7.4l-13.6,27.1L756.8,863.5L756.8,863.5z M326.2,836.2
	c1.4,0,2.5-0.2,3.1-0.6c0.7-0.5,1.1-1.7,1.1-4.3l0-11.7c0-1.7-1.8-1.9-4-1.9L326.2,836.2L326.2,836.2z M588.2,817.2h-10.1l-0.3,61
	L588.2,817.2z M553,815.2l-0.2,85.3h21l0.4-85.3l0-2h15.9l0-21.1h-53.1l0,21.1h16L553,815.2L553,815.2z M513.3,827.1l-0.1,73.5h15.4
	l0.1-27.7l0-2h13.2l0-15.1h-13.3l0-2l0.1-9.4l0-1.9h18.1l0-15.5L513.3,827.1L513.3,827.1L513.3,827.1z M508.5,882.8v-38.1l0,0v0h0
	c0-4.7-1.9-9.2-5.2-12.5c-3.2-3.2-7.6-5.2-12.5-5.2c-4.9,0-9.3,2-12.5,5.2c-3.2,3.2-5.2,7.6-5.2,12.5v38.1c0,4.7,1.9,9.2,5.2,12.5
	c3.2,3.2,7.6,5.2,12.5,5.2c4.7,0,9.2-1.9,12.5-5.2C506.5,892.2,508.5,887.7,508.5,882.8L508.5,882.8L508.5,882.8L508.5,882.8z
	 M486.1,845.2c0-1.3,0.5-2.5,1.4-3.3c0.8-0.8,2-1.4,3.3-1.4c1.3,0,2.4,0.5,3.3,1.4l0,0c0.9,0.9,1.4,2.1,1.4,3.3v37.2
	c0,1.2-0.5,2.4-1.4,3.3l0,0c-0.9,0.9-2.1,1.4-3.3,1.4c-1.2,0-2.4-0.5-3.3-1.4l0,0c-0.9-0.9-1.4-2.1-1.4-3.3L486.1,845.2L486.1,845.2
	z M408,900.5l0.1-22h-25.9l0-2l0.1-84.4h-21.2l-0.2,108.4L408,900.5L408,900.5L408,900.5z M412.2,792.2l-0.2,82.4h0l0,2l0.1,24h29.7
	c6.2,0,12.3-3.2,16.9-8c4.8-5,8.1-11.5,8.1-17.6l0.1-56.1h0v0h0c0-6.5-2.9-13.2-7.5-18.2c-4.5-5-10.7-8.5-17.4-8.5v0L412.2,792.2
	L412.2,792.2L412.2,792.2z M437.8,875.4c1.2-0.1,2.1-0.3,2.8-0.7c0.7-0.5,1.1-1.5,1.1-3.3l0.2-51.6c0-0.8-0.1-1.4-0.3-1.7
	c-0.1-0.2-0.4-0.3-0.9-0.3h-2.8L437.8,875.4L437.8,875.4z M442.7,877.9c-1.7,1.1-4,1.5-6.9,1.5h-2l0-2l0.1-61.6l0-2h6.7
	c1.9,0,3.2,0.7,4.1,1.9c0.8,1.1,1.1,2.4,1.1,4l-0.2,51.6C445.6,874.6,444.6,876.6,442.7,877.9L442.7,877.9z M360.4,900.5l-12.8-46.1
	l-0.4-1.4l1.2-0.8c1.5-0.9,3.3-3,4.6-5.3c1.2-2,2-4.3,2-6.2l0.1-24.4v-0.1h0c0-8.4-3.6-14.4-8.4-18.3c-4.8-3.9-10.9-5.7-15.7-5.7
	h-0.1v0h-29.8l-0.2,108.4h21.5l0.1-40.8l0-2h3.7l0.4,1.5l10.5,41.3L360.4,900.5L360.4,900.5L360.4,900.5z M357.2,874.5l0.1-27.1
	c-0.2,0.5-0.5,1-0.8,1.4c-1.3,2.4-3.1,4.5-4.8,5.8L357.2,874.5L357.2,874.5z M331.5,838.9c-1.8,1.2-4.1,1.2-7.2,1.2h-2l0-2l0.1-22.4
	l0-1.9h1.9c1.2,0,0.7,0,0.9,0c4.7,0,8.9-0.1,8.9,5.8l0,11.7C334.3,835.5,333.4,837.7,331.5,838.9L331.5,838.9L331.5,838.9
	L331.5,838.9z M245.3,806.2c-1.8,4.8-2.4,10.8-2.6,16.8v51.3c0,7.5,3,14.3,7.9,19.2c4.9,4.9,11.7,7.9,19.2,7.9
	c7.5,0,14.3-3,19.2-7.9c4.9-4.9,7.9-11.7,7.9-19.2l0,0v-56.3h0v0c0-7.5-3-14.3-7.9-19.2c-4.9-4.9-11.7-8-19.2-8
	c-7.5,0-14.3,3-19.2,8C248.5,800.9,246.7,803.4,245.3,806.2L245.3,806.2z M267.8,818.5v55.1c0,0.6,0.2,1.1,0.6,1.4l0,0
	c0.4,0.4,0.9,0.6,1.4,0.6c0.5,0,1.1-0.2,1.4-0.6l0,0c0.4-0.4,0.6-0.9,0.6-1.4v-55.1c0-0.5-0.2-1.1-0.6-1.4l0,0l0,0
	c-0.4-0.4-0.9-0.6-1.4-0.6c-0.5,0-1,0.2-1.4,0.5c0,0-0.1,0.1-0.1,0.1C268,817.5,267.8,818,267.8,818.5L267.8,818.5z M263.9,818.5
	c0-1.6,0.7-3.1,1.7-4.2c0,0,0.1-0.1,0.1-0.1c1.1-1,2.5-1.6,4.1-1.6c1.6,0,3.1,0.7,4.2,1.7h0c1.1,1.1,1.7,2.5,1.7,4.2v55.2
	c0,1.6-0.7,3.1-1.7,4.2l0,0l0,0c-1.1,1.1-2.6,1.7-4.2,1.7c-1.6,0-3.1-0.7-4.2-1.7l0,0l0,0l0,0c-1.1-1.1-1.7-2.6-1.7-4.1L263.9,818.5
	L263.9,818.5L263.9,818.5z M275.8,873.7c0,1.1-0.9,1.9-2,1.9L275.8,873.7z M195.2,900.5l3.8-28.9l1.9-14.6l1.9,14.6l3.8,28.9h19.8
	l17-108.4h-21.9l-4,24.6l-2.2,13.5l-1.7-13.6l-3.1-24.6h-21l-3.1,24.6l-1.7,13.6l-2.2-13.5l-4-24.6h-21.8l18.3,108.4L195.2,900.5
	L195.2,900.5L195.2,900.5z M596.4,792.2L578,900.6h22.1l4.3-22.3l0.3-1.6h10.1l0.3,1.6l3.5,22.2h21.8l-17.6-108.4L596.4,792.2
	L596.4,792.2L596.4,792.2z M643,792.2L643,900.6h22.2l0.1-34.2l0-12.3l3.8,11.7l11.3,34.8H702l0.1-108.4h-21.3v50.2l-3.8-12.6
	l-11.4-37.6L643,792.2L643,792.2z M706,792.2L706,900.6h21.3l0-28.8l0-9.7l3.7,9l12.3,29.6h24.3l-25.2-61.8l-0.3-0.8l0.4-0.8
	l22.7-45h-24.1l-10.2,19l-3.7,6.9l0-7.8l0.1-18.1L706,792.2L706,792.2z M797.2,823.1l20.7-3.4c-0.2-8-2.8-15.2-7.6-20.4
	c-4.7-5-11.6-8.2-20.7-8.3c-5.8-0.1-10.8,1.4-14.7,4c-3.8,2.5-6.7,5.9-8.6,10c-2,4.1-3.1,8.8-3.2,13.6c-0.1,6.9,1.8,14.1,5.8,20.3
	c0.4,0.7,1.1,1.5,1.8,2.4c0.9,1.1,1.9,2.3,2.9,3.3c3.1,3.4,6.5,6.4,9.7,9.2c2.6,2.3,5.1,4.5,7.6,7c3.2,3.3,5,6.5,5.6,9.3
	c0.5,2,0.5,3.9,0.1,5.4c-0.4,1.6-1.2,3-2.2,4c-0.8,0.8-1.8,1.3-2.8,1.6c-0.4,0.1-0.9,0.2-1.3,0.2c-1.9,0-3.6-1-5.1-2.8
	c-1.2-1.5-2.3-3.8-3-6.6c-0.5-1.9-0.8-4.1-0.9-6.6l-20.5,1.1c0.9,9.8,3.4,19.5,8.8,26.2c4.5,5.6,11,9.2,20.4,9.1
	c3.4,0,7.8-0.6,12-2.1c3.1-1.1,6-2.8,8.2-5.2c2.3-2.4,4.5-6,6-9.9c1.4-3.5,2.3-7.2,2.2-10.6c-0.3-17-11.3-27.1-22.5-37.4
	c-1.9-1.7-3.8-3.5-5.7-5.3c-3.8-3.6-5.4-7.7-5.7-11.2c-0.1-1.5,0.1-3,0.4-4.2c0.4-1.3,1-2.5,1.9-3.3c1-1,2.2-1.7,3.6-1.8
	c0,0,0.1,0,0.3,0c2,0,3.5,1.2,4.6,3.6c0.8,1.8,1.4,4.5,1.7,7.8C797.2,822.5,797.2,822.8,797.2,823.1L797.2,823.1z"/>
</svg>
